# xmcd CD database file
#
# Track frame offsets:
#	150
#	14361
#	28536
#	41972
#	56906
#	66612
#	79059
#	90686
#	101598
#	112537
#	122632
#	133756
#	142105
#	153560
#	164986
#
# Disc length: 2393 seconds
#
# Revision: 0
# Processed by: cddbd v1.5.1PL2 Copyright (c) Steve Scherf et al.
# Submitted via: CDex 1.51
#
DISCID=da09570f
DTITLE=My Bloody Valentine - Things Left Behind...
DYEAR=2006
DGENRE=Rock
TTITLE0=No Place To Go
TTITLE1=MonnLight
TTITLE2=Love Machine
TTITLE3=Sandman Never Sleeps
TTITLE4=Lovelee Sweet Darlene
TTITLE5=By Danger In Your Eyes
TTITLE6=On Another Rainy Saturday
TTITLE7=We're So Beautiful
TTITLE8=Sunny Sundae Smile
TTITLE9=Paint A Rainbow
TTITLE10=Kiss The Eclipse
TTITLE11=Silvie's Head
TTITLE12=Strawberry Wine
TTITLE13=Never Say Boodbye
TTITLE14=Can I Touch You
EXTD=YEAR: 2006
EXTT0=
EXTT1=
EXTT2=
EXTT3=
EXTT4=
EXTT5=
EXTT6=
EXTT7=
EXTT8=
EXTT9=
EXTT10=
EXTT11=
EXTT12=
EXTT13=
EXTT14=
PLAYORDER=
